HIERARCHY
ROOT walk
{
	OFFSET 0 0 0
	CHANNELS 6 Xposition Yposition Zposition Zrotation Xrotation Yrotation
	JOINT walk1
	{
		OFFSET 0 0 0
		CHANNELS 3 Zrotation Xrotation Yrotation
		JOINT _no_name_
		{
			OFFSET 0 0 0
			CHANNELS 3 Zrotation Xrotation Yrotation
			JOINT walk2
			{
				OFFSET 0 0 0
				CHANNELS 3 Zrotation Xrotation Yrotation
				JOINT idle
				{
					OFFSET 0 0 0
					CHANNELS 3 Zrotation Xrotation Yrotation
					JOINT Abdomen
					{
						OFFSET -0.004105 1.40694 0.023291
						CHANNELS 3 Zrotation Xrotation Yrotation
						JOINT Chest
						{
							OFFSET 0.005368 0.267202 -0.042337
							CHANNELS 3 Zrotation Xrotation Yrotation
							JOINT Neck
							{
								OFFSET -0.00498936 0.26984 -0.0265572
								CHANNELS 3 Zrotation Xrotation Yrotation
								JOINT Head
								{
									OFFSET 0.00108195 0.101193 0.0333381
									CHANNELS 3 Zrotation Xrotation Yrotation
									JOINT blink
									{
										OFFSET 0.00353779 0.0233099 0.0746863
										CHANNELS 3 Zrotation Xrotation Yrotation
										End Site
										{
											OFFSET 0 0 0
										}
									}
									JOINT brow
									{
										OFFSET 0.00440768 0.0596471 0.0806108
										CHANNELS 3 Zrotation Xrotation Yrotation
										End Site
										{
											OFFSET 0 0 0
										}
									}
									JOINT reye
									{
										OFFSET -0.0344955 0.0354559 0.0834761
										CHANNELS 3 Zrotation Xrotation Yrotation
										End Site
										{
											OFFSET 0 0 0
										}
									}
									JOINT leye
									{
										OFFSET 0.0409459 0.0346091 0.0803096
										CHANNELS 3 Zrotation Xrotation Yrotation
										End Site
										{
											OFFSET 0 0 0
										}
									}
									JOINT smile
									{
										OFFSET 0.00276452 -0.0450239 0.0962102
										CHANNELS 3 Zrotation Xrotation Yrotation
										End Site
										{
											OFFSET 0 0 0
										}
									}
									JOINT mouth
									{
										OFFSET -0.00667373 -0.0428159 0.0125337
										CHANNELS 3 Zrotation Xrotation Yrotation
										End Site
										{
											OFFSET 0 0 0
										}
									}
									JOINT Pony1
									{
										OFFSET -0.00691228 0.0623319 -0.155624
										CHANNELS 3 Zrotation Xrotation Yrotation
										JOINT pony2
										{
											OFFSET 0.0013708 -0.115109 -0.0333219
											CHANNELS 3 Zrotation Xrotation Yrotation
											End Site
											{
												OFFSET 0 0 0
											}
										}
									}
								}
							}
							JOINT rShldr
							{
								OFFSET -0.174521 0.148378 -0.0219776
								CHANNELS 3 Zrotation Xrotation Yrotation
								JOINT rArm
								{
									OFFSET -0.122341 -0.32871 0.151207
									CHANNELS 3 Zrotation Xrotation Yrotation
									JOINT rHand
									{
										OFFSET -0.0335038 -0.203119 0.239969
										CHANNELS 3 Zrotation Xrotation Yrotation
										JOINT rFngr
										{
											OFFSET -0.0110144 -0.0557272 0.0779683
											CHANNELS 3 Zrotation Xrotation Yrotation
											End Site
											{
												OFFSET 0 0 0
											}
										}
									}
								}
							}
							JOINT lShldr
							{
								OFFSET 0.187168 0.142087 -0.113633
								CHANNELS 3 Zrotation Xrotation Yrotation
								JOINT lArm
								{
									OFFSET 0.0749112 -0.31802 -0.0490561
									CHANNELS 3 Zrotation Xrotation Yrotation
									JOINT lHand
									{
										OFFSET 0.115364 -0.291407 0.0316988
										CHANNELS 3 Zrotation Xrotation Yrotation
										JOINT lFngr
										{
											OFFSET 0.044904 -0.114343 0.0129011
											CHANNELS 3 Zrotation Xrotation Yrotation
											End Site
											{
												OFFSET 0 0 0
											}
										}
									}
								}
							}
							JOINT rboob
							{
								OFFSET -0.0575242 -0.0216219 0.159025
								CHANNELS 3 Zrotation Xrotation Yrotation
								End Site
								{
									OFFSET 0 0 0
								}
							}
							JOINT lboob
							{
								OFFSET 0.115711 -0.025588 0.116239
								CHANNELS 3 Zrotation Xrotation Yrotation
								End Site
								{
									OFFSET 0 0 0
								}
							}
						}
						JOINT hip
						{
							OFFSET -0.000741 -0.17168 -0.04419
							CHANNELS 3 Zrotation Xrotation Yrotation
							JOINT rThigh
							{
								OFFSET -0.115318 -0.0575235 -0.038701
								CHANNELS 3 Zrotation Xrotation Yrotation
								JOINT rShin
								{
									OFFSET 0.0121913 -0.561695 -0.0681905
									CHANNELS 3 Zrotation Xrotation Yrotation
									JOINT rFoot
									{
										OFFSET 0.000278868 -0.494966 -0.163968
										CHANNELS 3 Zrotation Xrotation Yrotation
										JOINT rToe
										{
											OFFSET -0.0603155 -0.129313 0.115054
											CHANNELS 3 Zrotation Xrotation Yrotation
											End Site
											{
												OFFSET 0 0 0
											}
										}
									}
								}
							}
							JOINT lThigh
							{
								OFFSET 0.118454 -0.0761647 0.011076
								CHANNELS 3 Zrotation Xrotation Yrotation
								JOINT lshin
								{
									OFFSET -0.0141692 -0.523392 0.0852758
									CHANNELS 3 Zrotation Xrotation Yrotation
									JOINT lFoot
									{
										OFFSET -0.00851462 -0.462988 -0.237235
										CHANNELS 3 Zrotation Xrotation Yrotation
										JOINT lToe
										{
											OFFSET 0.0369661 -0.154543 0.0971837
											CHANNELS 3 Zrotation Xrotation Yrotation
											End Site
											{
												OFFSET 0 0 0
											}
										}
									}
								}
							}
						}
						JOINT Body
						{
							OFFSET 0 0 0
							CHANNELS 3 Zrotation Xrotation Yrotation
							End Site
							{
								OFFSET 0 0 0
							}
						}
					}
				}
			}
			JOINT _no_name_1
			{
				OFFSET 0 0 0
				CHANNELS 3 Zrotation Xrotation Yrotation
				End Site
				{
					OFFSET 0 0 0
				}
			}
		}
	}
}
MOTION
Frames: 8
Frame Time: 0.333333
0 0 0 0 0 0 0 0 0 0 0 0 0 0 0 0 0 0 1.42443 29.6917 2.2379 0 0 -42.9829 3.90645 -21.1587 61.8989 0 0 -2.68188e-008 0 0 -2.68188e-008 0 0 -2.68188e-008 0 0 44.5 0 0 46.5 0 0 -2.68188e-008 0 0 -2.68188e-008 0.284743 -5.77352 0.0143586 0.420457 -8.4915 0.031214 -7.98903 24.9504 -26.8745 -0.973577 2.11593 -1.14575 -1.8324 2.39239 1.11311 -4.86025e-007 -4.09237e-007 9.38668e-007 20.2903 -50.8382 -51.7428 -19.032 -1.87005 -20.0293 2.2544e-007 -3.03508e-007 -1.76281e-007 2.2544e-007 -3.03508e-007 -1.76281e-007 0 0 -1.20134e-007 0 0 -1.20134e-007 8.42486 -38.4833 5.19825 -39.5053 -88.4133 -19.1203 154.553 47.0529 -147.258 -3.73824 -25.5637 0.399897 -3.61623 -24.7758 0.413981 32.8837 -65.9189 36.6436 -35.2195 79.8247 30.4618 -1.16959 -19.4107 -0.798998 0.865277 17.4711 0.404852 0 0 0 0 0 0 
0 0 0 0 0 0 0 0 0 0 0 0 0 0 0 0 0 0 0 0 0 0 0 -9.98295 0 0 7.16904 0 0 -2.68188e-008 0 0 -2.68188e-008 0 0 -2.68188e-008 0 0 -1.01566e-005 0 0 -2.68188e-008 0 0 -2.68188e-008 0 0 -2.68188e-008 0.284743 -5.77352 0.0143586 0.420457 -8.4915 0.031214 -22.5856 9.86596 -20.3757 -0.973577 2.11593 -1.14575 -1.8324 2.39239 1.11311 -4.86025e-007 -4.09237e-007 9.38668e-007 32.4803 -1.19734 -11.863 0.730874 -3.37895 -2.13814 2.2544e-007 -3.03508e-007 -1.76281e-007 2.2544e-007 -3.03508e-007 -1.76281e-007 0 0 -1.20134e-007 0 0 -1.20134e-007 4.7618 0.110932 -0.673428 -1.77724 -14.6025 9.78009 -1.37879e-008 -1.02761e-009 -1.23414e-007 -0.626678 -4.29674 0.182959 1.58417 10.318 -0.640482 -6.57346 4.94916 3.83187 -1.88716 -28.5635 -1.37218 -0.615479 -10.9316 -0.393924 1.96632 39.4399 0.549632 0 0 0 0 0 0 
0 0 0 0 0 0 0 0 0 0 0 0 0 0 0 0 0 0 4.91735 12.588 -21.5426 0.250995 9.4967 -11.5038 3.41605 -18.7016 32.2317 0 0 -2.68188e-008 -0.345364 6.99157 0.0210979 -0.147411 2.99638 0.00385538 8.47317 9.89549 -0.734841 0 0 -2.68188e-008 0.99596 -19.4756 0.170923 8.13645 -2.60496 -0.0245211 -0.256947 5.21319 0.0116976 0.420457 -8.4915 0.031214 2.22838 -19.4248 -23.1715 60.5187 -23.2438 70.9813 25.6935 20.9221 6.83931 166.757 80.6662 -76.6745 39.1718 -45.139 -27.9375 107.847 -84.4724 86.5855 -14.4606 -6.329 1.97784 -71.7014 7.77039 -22.7443 0 0 -1.20134e-007 0 0 -1.20134e-007 4.86567 -11.847 0.337032 -21.6649 -22.3195 -21.9745 3.20655 19.7286 -1.51692 3.42653 -13.5373 -0.216827 -0.0073786 -0.0500597 0.00240269 -2.5402 -20.3195 15.3711 -0.277736 -5.12422 -0.169086 -0.615479 -10.9316 -0.393924 1.96632 39.4399 0.549632 0 0 0 0 0 0 
0 0 0 0 0 0 0 0 0 0 0 0 0 0 0 0 0 0 4.91735 12.588 -21.5426 0.250995 9.4967 -11.5038 3.41605 -18.7016 32.2317 0 0 -2.68188e-008 -0.345364 6.99157 0.0210979 -0.147411 2.99638 0.00385538 8.47317 9.89549 -0.734841 0 0 -2.68188e-008 0.99596 -19.4756 0.170923 8.13645 -2.60496 -0.0245211 -0.256947 5.21319 0.0116976 0.420457 -8.4915 0.031214 7.82638 -18.6579 -20.0539 60.5187 -23.2438 70.9813 25.6935 20.9221 6.83931 166.757 80.6662 -76.6745 25.6091 -43.1 -36.2642 107.847 -84.4724 86.5855 -14.4606 -6.329 1.97784 -71.7014 7.77039 -22.7443 0 0 -1.20134e-007 0 0 -1.20134e-007 4.86567 -11.847 0.337032 -26.4579 -31.4404 -24.2349 2.21352 43.6767 -0.546194 3.42653 -13.5373 -0.216827 -0.0073786 -0.0500597 0.00240269 0.494016 -30.0077 16.974 -0.987021 14.5259 -0.0627713 -0.615479 -10.9316 -0.393924 1.96632 39.4399 0.549632 0 0 0 0 0 0 
0 0 0 0 0 0 0 0 0 0 0 0 0 0 0 0 0 0 4.91735 12.588 -21.5426 0.250995 9.4967 -11.5038 3.41605 -18.7016 32.2317 0 0 -2.68188e-008 -0.345364 6.99157 0.0210979 -0.147411 2.99638 0.00385538 8.47317 9.89549 -0.734841 0 0 -2.68188e-008 0.99596 -19.4756 0.170923 8.13645 -2.60496 -0.0245211 -0.256947 5.21319 0.0116976 0.420457 -8.4915 0.031214 2.22838 -19.4248 -23.1715 60.5187 -23.2438 70.9813 25.6935 20.9221 6.83931 166.757 80.6662 -76.6745 39.1718 -45.139 -27.9375 107.847 -84.4724 86.5855 -14.4606 -6.329 1.97784 -71.7014 7.77039 -22.7443 0 0 -1.20134e-007 0 0 -1.20134e-007 4.86567 -11.847 0.337032 -21.6649 -22.3195 -21.9745 3.20655 19.7286 -1.51692 3.42653 -13.5373 -0.216827 -0.0073786 -0.0500597 0.00240269 -2.5402 -20.3195 15.3711 -0.277736 -5.12422 -0.169086 -0.615479 -10.9316 -0.393924 1.96632 39.4399 0.549632 0 0 0 0 0 0 
0 0 0 0 0 0 0 0 0 0 0 0 0 0 0 0 0 0 4.91735 12.588 -21.5426 0.250995 9.4967 -11.5038 3.41605 -18.7016 32.2317 0 0 -2.68188e-008 -0.345364 6.99157 0.0210979 -0.147411 2.99638 0.00385538 8.47317 9.89549 -0.734841 0 0 -2.68188e-008 0.99596 -19.4756 0.170923 8.13645 -2.60496 -0.0245211 -0.256947 5.21319 0.0116976 0.420457 -8.4915 0.031214 7.82638 -18.6579 -20.0539 60.5187 -23.2438 70.9813 25.6935 20.9221 6.83931 166.757 80.6662 -76.6745 25.6091 -43.1 -36.2642 107.847 -84.4724 86.5855 -14.4606 -6.329 1.97784 -71.7014 7.77039 -22.7443 0 0 -1.20134e-007 0 0 -1.20134e-007 4.86567 -11.847 0.337032 -26.4579 -31.4404 -24.2349 2.21352 43.6767 -0.546194 3.42653 -13.5373 -0.216827 -0.0073786 -0.0500597 0.00240269 0.494016 -30.0077 16.974 -0.987021 14.5259 -0.0627713 -0.615479 -10.9316 -0.393924 1.96632 39.4399 0.549632 0 0 0 0 0 0 
0 0 0 0 0 0 0 0 0 0 0 0 0 0 0 0 0 0 4.91735 12.588 -21.5426 0.250995 9.4967 -11.5038 3.41605 -18.7016 32.2317 0 0 -2.68188e-008 -0.345364 6.99157 0.0210979 -0.147411 2.99638 0.00385538 8.47317 9.89549 -0.734841 0 0 -2.68188e-008 0.99596 -19.4756 0.170923 8.13645 -2.60496 -0.0245211 -0.256947 5.21319 0.0116976 0.420457 -8.4915 0.031214 2.22838 -19.4248 -23.1715 60.5187 -23.2438 70.9813 25.6935 20.9221 6.83931 166.757 80.6662 -76.6745 39.1718 -45.139 -27.9375 107.847 -84.4724 86.5855 -14.4606 -6.329 1.97784 -71.7014 7.77039 -22.7443 0 0 -1.20134e-007 0 0 -1.20134e-007 4.86567 -11.847 0.337032 -21.6649 -22.3195 -21.9745 3.20655 19.7286 -1.51692 3.42653 -13.5373 -0.216827 -0.0073786 -0.0500597 0.00240269 -2.5402 -20.3195 15.3711 -0.277736 -5.12422 -0.169086 -0.615479 -10.9316 -0.393924 1.96632 39.4399 0.549632 0 0 0 0 0 0 
0 0 0 0 0 0 0 0 0 0 0 0 0 0 0 0 0 0 4.91735 12.588 -21.5426 0.250995 9.4967 -11.5038 3.41605 -18.7016 32.2317 0 0 -2.68188e-008 -0.345364 6.99157 0.0210979 -0.147411 2.99638 0.00385538 8.47317 9.89549 -0.734841 0 0 -2.68188e-008 0.99596 -19.4756 0.170923 8.13645 -2.60496 -0.0245211 -0.256947 5.21319 0.0116976 0.420457 -8.4915 0.031214 7.82638 -18.6579 -20.0539 60.5187 -23.2438 70.9813 25.6935 20.9221 6.83931 166.757 80.6662 -76.6745 25.6091 -43.1 -36.2642 107.847 -84.4724 86.5855 -14.4606 -6.329 1.97784 -71.7014 7.77039 -22.7443 0 0 -1.20134e-007 0 0 -1.20134e-007 4.86567 -11.847 0.337032 -26.4579 -31.4404 -24.2349 2.21352 43.6767 -0.546194 3.42653 -13.5373 -0.216827 -0.0073786 -0.0500597 0.00240269 0.494016 -30.0077 16.974 -0.987021 14.5259 -0.0627713 -0.615479 -10.9316 -0.393924 1.96632 39.4399 0.549632 0 0 0 0 0 0 
